<svg width="24" height="24" viewBox="0 0 24 24" fill="none" xmlns="http://www.w3.org/2000/svg">
<path d="M18 18C18.3979 18 18.7794 17.842 19.0607 17.5607C19.342 17.2794 19.5 16.8978 19.5 16.5V12.837C19.5 12.4392 19.342 12.0576 19.0607 11.7763C18.7794 11.495 18.3979 11.337 18 11.337H15.918C15.918 10.81 15.949 10.283 16.011 9.756C16.104 9.198 16.259 8.702 16.476 8.268C16.693 7.834 16.9725 7.4925 17.3145 7.2435C17.6545 6.9645 18.0885 6.825 18.6165 6.825V4.5C17.7485 4.5 16.9885 4.686 16.3365 5.058C15.689 5.42531 15.1327 5.93393 14.709 6.546C14.2824 7.21972 13.9683 7.95838 13.779 8.733C13.5876 9.58762 13.494 10.4612 13.5 11.337V16.5C13.5 16.8978 13.6581 17.2794 13.9394 17.5607C14.2207 17.842 14.6022 18 15 18H18ZM9.00003 18C9.39785 18 9.77938 17.842 10.0607 17.5607C10.342 17.2794 10.5 16.8978 10.5 16.5V12.837C10.5 12.4392 10.342 12.0576 10.0607 11.7763C9.77938 11.495 9.39785 11.337 9.00003 11.337H6.91803C6.91803 10.81 6.94903 10.283 7.01103 9.756C7.10503 9.198 7.26003 8.702 7.47603 8.268C7.69303 7.834 7.97253 7.4925 8.31453 7.2435C8.65453 6.9645 9.08853 6.825 9.61653 6.825V4.5C8.74853 4.5 7.98853 4.686 7.33653 5.058C6.68904 5.42531 6.13274 5.93393 5.70903 6.546C5.28245 7.21972 4.96834 7.95838 4.77903 8.733C4.5876 9.58762 4.494 10.4612 4.50003 11.337V16.5C4.50003 16.8978 4.65806 17.2794 4.93937 17.5607C5.22067 17.842 5.6022 18 6.00003 18H9.00003Z" fill="black"/>
</svg>
